<svg width="32" height="32" viewBox="0 0 32 32" fill="none" xmlns="http://www.w3.org/2000/svg">
<rect width="32" height="32" rx="6" fill="#7c3aed"/>
<g transform="translate(2, 6) scale(0.55)">
<path d="M35.9067 17.5353C36.5133 16.1346 37.4368 14.8621 38.7134 13.9311C39.9447 13.0429 41.4475 12.4365 42.9776 12.1888C44.2088 11.9923 45.4311 11.8642 46.6352 11.5397C48.1924 11.1212 49.8764 10.4294 50.7727 9.08844C50.8089 9.02866 50.7726 8.96031 50.673 8.96031H43.1948C41.9364 8.96031 40.2253 8.91763 39.3743 9.09699C38.4146 9.30197 37.5275 9.7546 36.767 10.3439C35.246 11.5226 34.1867 13.2991 33.9875 15.1524C33.9875 15.2378 33.9694 15.3147 33.9694 15.4001C33.8336 17.4585 33.8427 18.415 33.8065 20.4733C33.7974 21.02 33.7883 21.3018 33.7883 21.9936C33.7883 22.062 33.6796 22.0705 33.6705 21.9936C33.4713 20.9431 33.245 19.9951 33.0368 19.2606C32.4936 17.3218 31.1175 14.6058 29.2253 13.06C25.5043 10.0194 20.561 8.93469 16.4054 8.96031L1.65743 8.98596C1.65743 8.98596 1.57588 9.02009 1.58493 9.06279C1.72979 10.7026 3.1875 11.8301 4.62701 12.4536C6.48298 13.2564 8.52888 13.5041 10.5478 13.6151C14.0515 13.8116 17.3652 13.2735 20.8236 14.0251C25.6401 15.0671 30.031 18.3638 32.3216 22.5061C32.5932 23.0014 32.8377 23.5054 33.0549 24.0178C33.1726 24.3082 33.2631 24.5047 33.4079 24.9232C33.4623 25.0684 33.5256 25.2391 33.6071 25.3758C33.6886 25.521 33.761 25.5809 33.8515 25.5809C34.0598 25.5809 34.1233 24.4705 34.2319 23.8556C34.4854 22.4549 34.5125 22.3609 34.8566 20.9773C35.0014 20.4136 35.1554 19.8414 35.3274 19.2863C35.4722 18.6969 35.6713 18.1076 35.9158 17.5353H35.9067Z" fill="white"/>
</g>
</svg>
